<?xml version="1.0" encoding="utf-8"?>
<!-- Generator: Adobe Illustrator 23.0.4, SVG Export Plug-In . SVG Version: 6.00 Build 0)  -->
<svg version="1.1" id="Layer_1" xmlns="http://www.w3.org/2000/svg" xmlns:xlink="http://www.w3.org/1999/xlink" x="0px" y="0px"
	 viewBox="0 0 1425 710" style="enable-background:new 0 0 1425 710;" xml:space="preserve">
<style type="text/css">
	.st0{fill:#F0F0F0;}
	.st1{fill:#93B29F;}
	.st2{fill:#424C46;}
	.st3{fill:#E9F7FF;}
	.st4{fill:#BDE0FF;}
	.st5{fill:#444444;}
</style>
<g>
	<g>
		<path class="st0" d="M819.99,355c-0.28,44.87-28.74,86.18-71.27,101.25c-42.46,15.04-90.51,1.66-119.24-32.94
			c-28.71-34.59-32.24-85.25-9.12-123.68c23.06-38.33,68.9-58.82,112.85-50.13C783.28,259.39,819.68,304.14,819.99,355
			c0.04,5.79,9.04,5.8,9,0c-0.3-48.6-30.94-92.67-76.63-109.48c-45.65-16.79-98.83-2.27-129.66,35.31
			c-30.93,37.7-35.33,92.16-10.11,134.09c25.22,41.91,75.09,63.79,123.02,54.27c46.9-9.32,84.61-48.47,91.91-95.77
			c0.94-6.11,1.44-12.24,1.48-18.42C829.02,349.21,820.02,349.2,819.99,355z"/>
	</g>
</g>
<g>
	<g>
		<g>
			<path class="st1" d="M709.8,294.02c1.18,2.35,1.91,4.93,2.13,7.56"/>
			<g>
				<path class="st1" d="M709.15,294.4c1.1,2.27,1.78,4.67,2.03,7.18c0.09,0.95,1.59,0.96,1.5,0c-0.27-2.78-1.01-5.42-2.23-7.94
					C710.03,292.78,708.73,293.53,709.15,294.4L709.15,294.4z"/>
			</g>
		</g>
		<g>
			<path class="st1" d="M710.07,293.51c0.73-1.72,2.53-3.31,4.34-3.75c0.58-0.14,1.41-0.03,1.47,0.57c0.02,0.21-0.02,0.44-0.16,0.59
				c-1.63,1.88-1.6,1.48-2.42,2.11S711.06,293.79,710.07,293.51"/>
			<g>
				<path class="st1" d="M710.72,293.89c0.54-1.17,1.39-2.15,2.5-2.82c0.37-0.22,1.12-0.73,1.56-0.6c0.43,0.13-0.34,0.76-0.58,0.99
					c-1.05,1.01-2.47,1.67-3.93,1.33c-0.94-0.22-1.34,1.22-0.4,1.45c1.59,0.38,2.9,0.02,4.23-0.84c0.92-0.59,2.27-1.53,2.49-2.65
					c0.37-1.83-1.84-1.95-3.02-1.5c-1.81,0.68-3.34,2.14-4.15,3.89C709.02,294,710.31,294.77,710.72,293.89L710.72,293.89z"/>
			</g>
		</g>
		<g>
			<path class="st1" d="M709.8,294.02c0.21-1.26-0.52-3-1.41-3.93c-0.89-0.93-2.06-1.52-3.27-1.96c-0.24-0.09-0.5-0.17-0.75-0.12
				c-0.72,0.16-0.74,1.19-0.49,1.89C704.67,292.08,709.8,294.02,709.8,294.02z"/>
			<g>
				<path class="st1" d="M710.55,294.02c0.24-2.23-1.14-4.38-2.97-5.54c-1.47-0.94-4.67-2.23-4.59,0.71
					c0.08,2.97,4.27,4.66,6.61,5.55c0.9,0.34,1.29-1.11,0.4-1.45c-1.63-0.62-3.39-1.45-4.67-2.66c-0.33-0.31-0.76-0.73-0.81-1.21
					c-0.12-1.2,1.83,0.03,2.3,0.34c1.41,0.92,2.41,2.52,2.22,4.25C708.95,294.98,710.45,294.97,710.55,294.02z"/>
			</g>
		</g>
	</g>
	<g>
		<g>
			<path class="st2" d="M706.65,291.12c0.87,0.93,1.87,1.7,2.99,2.31c0.17,0.09,0.32-0.17,0.15-0.26c-1.09-0.6-2.07-1.35-2.93-2.26
				C706.73,290.76,706.52,290.98,706.65,291.12L706.65,291.12z"/>
		</g>
	</g>
	<g>
		<g>
			<path class="st2" d="M709.88,293.4c1.16-0.51,2.22-1.2,3.17-2.05c0.14-0.13-0.07-0.34-0.21-0.21c-0.93,0.83-1.97,1.5-3.11,2
				C709.56,293.22,709.71,293.48,709.88,293.4L709.88,293.4z"/>
		</g>
	</g>
</g>
<ellipse class="st3" cx="715.12" cy="357.62" rx="58.12" ry="56.33"/>
<ellipse class="st4" cx="714.86" cy="356.03" rx="49.16" ry="49.43"/>
<ellipse transform="matrix(0.0572 -0.9984 0.9984 0.0572 343.2168 1041.7571)" class="st5" cx="723.19" cy="339.15" rx="3.66" ry="1.4"/>
<g>
	<g>
		<path class="st5" d="M709.43,347.91c0.71,1.3,3.24,1.2,3.91-0.1c0.22-0.43-0.43-0.81-0.65-0.38c-0.41,0.8-2.17,0.91-2.61,0.1
			C709.84,347.11,709.19,347.49,709.43,347.91L709.43,347.91z"/>
	</g>
</g>
<ellipse transform="matrix(0.0572 -0.9984 0.9984 0.0572 320.5926 1017.7993)" class="st5" cx="699.19" cy="339.15" rx="3.66" ry="1.4"/>
</svg>
