<?xml version="1.0" encoding="utf-8"?>
<!-- Generator: Adobe Illustrator 23.0.4, SVG Export Plug-In . SVG Version: 6.00 Build 0)  -->
<svg version="1.1" id="Layer_1" xmlns="http://www.w3.org/2000/svg" xmlns:xlink="http://www.w3.org/1999/xlink" x="0px" y="0px"
	 viewBox="0 0 1425 710" style="enable-background:new 0 0 1425 710;" xml:space="preserve">
<style type="text/css">
	.st0{fill:#F0F0F0;}
	.st1{fill:#93B29F;}
	.st2{fill:#424C46;}
	.st3{fill:#C6F4E4;}
	.st4{fill:#444444;}
	.st5{fill:#B8DDCE;}
</style>
<g>
	<g>
		<path class="st0" d="M819.99,355c-0.28,44.87-28.74,86.18-71.27,101.25c-42.46,15.04-90.51,1.66-119.24-32.94
			c-28.71-34.59-32.24-85.25-9.12-123.68c23.06-38.33,68.9-58.82,112.85-50.13C783.28,259.39,819.68,304.14,819.99,355
			c0.04,5.79,9.04,5.8,9,0c-0.3-48.6-30.94-92.67-76.63-109.48c-45.65-16.79-98.83-2.27-129.66,35.31
			c-30.93,37.7-35.33,92.16-10.11,134.09c25.22,41.91,75.09,63.79,123.02,54.27c46.9-9.32,84.61-48.47,91.91-95.77
			c0.94-6.11,1.44-12.24,1.48-18.42C829.02,349.21,820.02,349.2,819.99,355z"/>
	</g>
</g>
<g>
	<g>
		<g>
			<path class="st1" d="M709.99,302.96c1.18,2.33,1.9,4.88,2.12,7.48"/>
			<g>
				<path class="st1" d="M709.34,303.34c1.1,2.24,1.78,4.62,2.02,7.1c0.09,0.95,1.59,0.96,1.5,0c-0.27-2.76-1.01-5.37-2.22-7.86
					C710.21,301.72,708.92,302.48,709.34,303.34L709.34,303.34z"/>
			</g>
		</g>
		<g>
			<path class="st1" d="M710.26,302.46c0.73-1.71,2.52-3.27,4.32-3.71c0.58-0.14,1.4-0.03,1.46,0.56c0.02,0.2-0.02,0.43-0.16,0.59
				c-1.62,1.86-1.59,1.46-2.41,2.09C712.66,302.61,711.25,302.74,710.26,302.46"/>
			<g>
				<path class="st1" d="M710.91,302.84c0.54-1.16,1.39-2.13,2.49-2.79c0.35-0.21,1.13-0.72,1.55-0.59
					c0.41,0.13-0.34,0.74-0.58,0.97c-1.04,1-2.46,1.65-3.91,1.31c-0.94-0.22-1.34,1.22-0.4,1.45c1.58,0.37,2.88,0.02,4.21-0.84
					c0.92-0.59,2.26-1.51,2.49-2.63c0.37-1.83-1.84-1.93-3.01-1.5c-1.8,0.67-3.33,2.12-4.13,3.86
					C709.21,302.95,710.5,303.71,710.91,302.84L710.91,302.84z"/>
			</g>
		</g>
		<g>
			<path class="st1" d="M709.99,302.96c0.21-1.25-0.52-2.98-1.4-3.89c-0.88-0.92-2.06-1.5-3.25-1.94c-0.24-0.09-0.5-0.17-0.75-0.11
				c-0.72,0.16-0.74,1.18-0.49,1.87C704.89,301.04,709.99,302.96,709.99,302.96z"/>
			<g>
				<path class="st1" d="M710.74,302.96c0.24-2.22-1.14-4.34-2.96-5.49c-1.47-0.93-4.65-2.21-4.57,0.71
					c0.08,2.95,4.26,4.63,6.58,5.51c0.9,0.34,1.29-1.11,0.4-1.45c-1.62-0.61-3.38-1.44-4.65-2.63c-0.33-0.31-0.76-0.72-0.8-1.19
					c-0.11-1.17,1.82,0.04,2.29,0.35c1.4,0.91,2.4,2.49,2.21,4.2C709.14,303.92,710.64,303.91,710.74,302.96z"/>
			</g>
		</g>
	</g>
	<g>
		<g>
			<path class="st2" d="M706.86,300.09c0.87,0.92,1.86,1.68,2.98,2.29c0.17,0.09,0.32-0.17,0.15-0.26
				c-1.09-0.59-2.06-1.34-2.91-2.24C706.94,299.73,706.72,299.95,706.86,300.09L706.86,300.09z"/>
		</g>
	</g>
	<g>
		<g>
			<path class="st2" d="M710.08,302.35c1.16-0.51,2.21-1.19,3.16-2.03c0.14-0.13-0.07-0.34-0.21-0.21c-0.93,0.82-1.96,1.48-3.1,1.98
				C709.75,302.17,709.9,302.43,710.08,302.35L710.08,302.35z"/>
		</g>
	</g>
</g>
<circle class="st3" cx="714.94" cy="356.06" r="48.94"/>
<ellipse transform="matrix(0.0576 -0.9983 0.9983 0.0576 314.9849 1023.4216)" class="st4" cx="699.6" cy="344.86" rx="3.63" ry="1.39"/>
<ellipse transform="matrix(0.0576 -0.9983 0.9983 0.0576 337.2603 1047.0201)" class="st4" cx="723.24" cy="344.86" rx="3.63" ry="1.39"/>
<g>
	<g>
		<path class="st4" d="M709.68,350.32c0.89,1.62,4.09,1.5,4.92-0.13c0.22-0.43-0.43-0.81-0.65-0.38c-0.58,1.12-3,1.26-3.63,0.13
			C710.09,349.52,709.44,349.9,709.68,350.32L709.68,350.32z"/>
	</g>
</g>
<ellipse class="st5" cx="694.71" cy="379.98" rx="11.86" ry="6.97"/>
<ellipse class="st5" cx="731.71" cy="323.11" rx="8.47" ry="4.53"/>
<ellipse class="st5" cx="742.06" cy="365.55" rx="3.78" ry="2.84"/>
<circle class="st5" cx="682.23" cy="331.46" r="1.91"/>
<circle class="st5" cx="741.04" cy="386.59" r="1.91"/>
</svg>
