<?xml version="1.0" encoding="utf-8"?>
<!-- Generator: Adobe Illustrator 23.0.4, SVG Export Plug-In . SVG Version: 6.00 Build 0)  -->
<svg version="1.1" id="Layer_1" xmlns="http://www.w3.org/2000/svg" xmlns:xlink="http://www.w3.org/1999/xlink" x="0px" y="0px"
	 viewBox="0 0 140 90" style="enable-background:new 0 0 140 90;" xml:space="preserve">
<style type="text/css">
	.st0{fill:#87BC64;}
	.st1{fill:#DBF7C9;}
	.st2{fill:#424C46;}
	.st3{fill:#DBF7C9;stroke:#DBF7C9;stroke-width:0.5;stroke-miterlimit:10;}
	.st4{font-family:'Montserrat-Medium';}
	.st5{font-size:44.3758px;}
	.st6{fill:#87BC64;stroke:#87BC64;stroke-width:0.5;stroke-miterlimit:10;}
</style>
<g>
	<g>
		<path class="st0" d="M75.07,31.11c-1.52-1.55-2.43-3.69-2.49-5.86c-0.01-0.18,0-0.39,0.13-0.52c0.17-0.18,0.49-0.14,0.68,0.03
			c0.19,0.17,0.28,0.41,0.36,0.65c0.53,1.56,0.99,3.14,1.39,4.73c1.14-1.18,2.28-2.36,3.41-3.54c0.18-0.18,0.44-0.38,0.65-0.24
			c0.13,0.08,0.17,0.24,0.17,0.39c0.06,0.87-0.52,1.65-1.19,2.2C77.51,29.51,75.67,30.49,75.07,31.11"/>
		<g>
			<path class="st1" d="M76.13,30.05c-0.61-0.65-1.11-1.38-1.47-2.2c-0.33-0.77-0.29-1.64-0.57-2.39c0.03-0.79-0.57-0.67-1.79,0.34
				c0.05,0.16,0.1,0.31,0.16,0.47c0.07,0.45,0.31,0.97,0.45,1.41c0.29,0.94,0.54,1.9,0.78,2.85c0.27,1.09,1.73,1.47,2.51,0.66
				c0.57-0.59,1.14-1.18,1.71-1.77c0.21-0.22,1.38-1.57,1.3-1.57c-0.43-0.25-0.86-0.5-1.3-0.74c0.15,0.2-3.53,2.59-3.89,2.93
				c-1.41,1.32,0.71,3.44,2.12,2.12c1.76-1.64,5.1-2.55,4.71-5.62c-0.18-1.44-1.66-2.17-2.9-1.37c-1.46,0.94-2.67,2.64-3.87,3.89
				c0.84,0.22,1.67,0.44,2.51,0.66c-0.43-1.71-0.8-3.68-1.6-5.26c-0.61-1.21-2.23-1.93-3.33-0.81c-0.99,1-0.52,2.95-0.18,4.12
				c0.48,1.66,1.37,3.12,2.54,4.38C75.32,33.59,77.44,31.46,76.13,30.05L76.13,30.05z"/>
		</g>
	</g>
	<g>
		<g>
			<g>
				<path class="st2" d="M74.04,27.9c0.23,0.95,0.59,1.85,1.1,2.69c0.1,0.17,0.36,0.01,0.26-0.15c-0.49-0.82-0.85-1.69-1.07-2.62
					C74.28,27.63,73.99,27.71,74.04,27.9L74.04,27.9z"/>
			</g>
		</g>
		<g>
			<g>
				<path class="st2" d="M75.34,30.64c0.82-0.53,1.55-1.18,2.17-1.93c0.12-0.15-0.09-0.36-0.21-0.21c-0.6,0.74-1.3,1.37-2.11,1.89
					C75.03,30.49,75.18,30.75,75.34,30.64L75.34,30.64z"/>
			</g>
		</g>
	</g>
	<g>
		<text transform="matrix(1 0 0 1 18.9539 60.1296)" class="st3 st4 st5">liv ty</text>
		<rect x="72.57" y="36.7" class="st3" width="4.22" height="23.43"/>
	</g>
</g>
<text transform="matrix(1 0 0 1 20.0618 58.3579)" class="st6 st4 st5">liv ty</text>
<g>
	<path class="st0" d="M76.18,29.34c-1.52-1.55-2.43-3.69-2.49-5.86c-0.01-0.18,0-0.39,0.13-0.52c0.17-0.18,0.49-0.14,0.68,0.03
		c0.19,0.17,0.28,0.41,0.36,0.65c0.53,1.56,0.99,3.14,1.39,4.73c1.14-1.18,2.28-2.36,3.41-3.54c0.18-0.18,0.44-0.38,0.65-0.24
		c0.13,0.08,0.17,0.24,0.17,0.39c0.06,0.87-0.52,1.65-1.19,2.2C78.62,27.73,76.78,28.71,76.18,29.34"/>
	<g>
		<path class="st0" d="M77.24,28.28c-0.61-0.65-1.11-1.38-1.47-2.2c-0.33-0.77-0.29-1.64-0.57-2.39c0.03-0.79-0.57-0.67-1.79,0.34
			c0.05,0.16,0.1,0.31,0.16,0.47c0.07,0.45,0.31,0.97,0.45,1.41c0.29,0.94,0.54,1.9,0.78,2.85c0.27,1.09,1.73,1.47,2.51,0.66
			c0.57-0.59,1.14-1.18,1.71-1.77c0.21-0.22,1.38-1.57,1.3-1.57c-0.43-0.25-0.86-0.5-1.3-0.74c0.15,0.2-3.53,2.59-3.89,2.93
			c-1.41,1.32,0.71,3.44,2.12,2.12c1.76-1.64,5.1-2.55,4.71-5.62c-0.18-1.44-1.66-2.17-2.9-1.37c-1.46,0.94-2.67,2.64-3.87,3.89
			c0.84,0.22,1.67,0.44,2.51,0.66c-0.43-1.71-0.8-3.68-1.6-5.26c-0.61-1.21-2.23-1.93-3.33-0.81c-0.99,1-0.52,2.95-0.18,4.12
			c0.48,1.66,1.37,3.12,2.54,4.38C76.43,31.82,78.55,29.69,77.24,28.28L77.24,28.28z"/>
	</g>
</g>
<g>
	<g>
		<g>
			<path class="st2" d="M75.14,26.13c0.23,0.95,0.59,1.85,1.1,2.69c0.1,0.17,0.36,0.01,0.26-0.15c-0.49-0.82-0.85-1.69-1.07-2.62
				C75.39,25.86,75.1,25.94,75.14,26.13L75.14,26.13z"/>
		</g>
	</g>
	<g>
		<g>
			<path class="st2" d="M76.45,28.87c0.82-0.53,1.55-1.18,2.17-1.93c0.12-0.15-0.09-0.36-0.21-0.21c-0.6,0.74-1.3,1.37-2.11,1.89
				C76.14,28.72,76.29,28.98,76.45,28.87L76.45,28.87z"/>
		</g>
	</g>
</g>
<rect x="73.68" y="34.92" class="st6" width="4.22" height="23.43"/>
</svg>
