<?xml version="1.0" encoding="utf-8"?>
<!-- Generator: Adobe Illustrator 23.0.4, SVG Export Plug-In . SVG Version: 6.00 Build 0)  -->
<svg version="1.1" id="Layer_1" xmlns="http://www.w3.org/2000/svg" xmlns:xlink="http://www.w3.org/1999/xlink" x="0px" y="0px"
	 viewBox="0 0 1425 710" style="enable-background:new 0 0 1425 710;" xml:space="preserve">
<style type="text/css">
	.st0{fill:#93B29F;}
	.st1{fill:#424C46;}
	.st2{fill:#F0F0F0;}
	.st3{fill:#FFCDAB;}
	.st4{fill:#E5BA9C;}
	.st5{fill:#444444;}
</style>
<g>
	<g>
		<g>
			<g>
				<path class="st0" d="M683.58,305.43c2.04,1.81,3.72,4.02,4.93,6.47"/>
				<g>
					<path class="st0" d="M683.05,305.96c1.99,1.81,3.59,3.92,4.81,6.31c0.44,0.86,1.73,0.1,1.3-0.76c-1.27-2.5-2.97-4.73-5.05-6.62
						C683.4,304.25,682.33,305.31,683.05,305.96L683.05,305.96z"/>
				</g>
			</g>
			<g>
				<path class="st0" d="M683.65,304.84c0.06-1.94,1.19-4.15,2.78-5.27c0.51-0.36,1.35-0.56,1.64-0.01c0.1,0.19,0.14,0.43,0.07,0.63
					c-0.87,2.43-0.99,2.03-1.54,2.95C686.04,304.06,684.72,304.73,683.65,304.84"/>
				<g>
					<path class="st0" d="M684.4,304.84c0.07-1.21,0.5-2.38,1.2-3.37c0.3-0.43,0.88-1.2,1.41-1.37c0.42-0.14,0.32,0.03,0.21,0.42
						c-0.07,0.27-0.21,0.55-0.33,0.8c-0.68,1.43-1.82,2.58-3.45,2.81c-0.95,0.13-0.55,1.58,0.4,1.45c1.67-0.24,2.73-1.15,3.68-2.46
						c0.68-0.94,1.75-2.58,1.26-3.75c-0.7-1.67-2.69-0.61-3.57,0.26c-1.39,1.37-2.21,3.29-2.32,5.23
						C682.84,305.8,684.34,305.8,684.4,304.84L684.4,304.84z"/>
				</g>
			</g>
			<g>
				<path class="st0" d="M683.58,305.43c-0.28-1.3-1.65-2.69-2.86-3.25c-1.21-0.56-2.58-0.68-3.91-0.64
					c-0.27,0.01-0.55,0.03-0.77,0.17c-0.64,0.43-0.27,1.43,0.24,2.01C677.88,305.52,683.58,305.43,683.58,305.43z"/>
				<g>
					<path class="st0" d="M684.3,305.23c-0.7-2.4-2.89-3.94-5.29-4.32c-1.72-0.27-4.95-0.24-3.84,2.42
						c1.17,2.82,5.85,2.88,8.41,2.85c0.96-0.01,0.97-1.51,0-1.5c-1.65,0.02-3.38-0.11-4.97-0.56c-0.51-0.15-1.06-0.32-1.48-0.65
						c-0.32-0.25-0.8-0.69-0.31-1.17c0.16-0.15,1.06,0.01,1.25,0.02c2.07,0.17,4.16,1.18,4.79,3.32
						C683.13,306.56,684.58,306.16,684.3,305.23z"/>
				</g>
			</g>
		</g>
		<g>
			<g>
				<path class="st1" d="M679.42,303.82c1.21,0.56,2.48,0.93,3.81,1.09c0.19,0.02,0.19-0.28,0-0.3c-1.27-0.16-2.49-0.51-3.66-1.05
					C679.39,303.48,679.24,303.74,679.42,303.82L679.42,303.82z"/>
			</g>
		</g>
		<g>
			<g>
				<path class="st1" d="M683.41,304.82c0.93-0.94,1.7-2,2.3-3.18c0.09-0.17-0.17-0.32-0.26-0.15c-0.59,1.16-1.34,2.2-2.25,3.12
					C683.06,304.74,683.27,304.95,683.41,304.82L683.41,304.82z"/>
			</g>
		</g>
	</g>
	<g>
		<g>
			<path class="st2" d="M819.99,355c-0.28,44.87-28.74,86.18-71.27,101.25c-42.46,15.04-90.51,1.66-119.24-32.94
				c-28.71-34.59-32.24-85.25-9.12-123.68c23.06-38.33,68.9-58.82,112.85-50.13C783.28,259.39,819.68,304.14,819.99,355
				c0.04,5.79,9.04,5.8,9,0c-0.3-48.6-30.94-92.67-76.63-109.48c-45.65-16.79-98.83-2.27-129.66,35.31
				c-30.93,37.7-35.33,92.16-10.11,134.09c25.22,41.91,75.09,63.79,123.02,54.27c46.9-9.32,84.61-48.47,91.91-95.77
				c0.94-6.11,1.44-12.24,1.48-18.42C829.02,349.21,820.02,349.2,819.99,355z"/>
		</g>
	</g>
	<circle class="st3" cx="713.83" cy="354.42" r="51.17"/>
	<ellipse transform="matrix(0.866 -0.5 0.5 0.866 -84.9517 406.957)" class="st4" cx="716.92" cy="362" rx="65.29" ry="8.82"/>
	
		<ellipse transform="matrix(0.9377 -0.3473 0.3473 0.9377 -77.3589 261.6718)" class="st5" cx="691.27" cy="346.63" rx="1.46" ry="3.79"/>
	
		<ellipse transform="matrix(0.9377 -0.3473 0.3473 0.9377 -72.2227 267.7594)" class="st5" cx="710.82" cy="335.35" rx="1.46" ry="3.79"/>
	<g>
		<g>
			<path class="st5" d="M703.17,347.58c1.55,1.21,4.57-0.22,4.68-2.18c0.03-0.48-0.72-0.48-0.75,0c-0.07,1.24-2.38,2.45-3.4,1.65
				C703.33,346.76,702.79,347.29,703.17,347.58L703.17,347.58z"/>
		</g>
	</g>
</g>
</svg>
