<?xml version="1.0" encoding="utf-8"?>
<!-- Generator: Adobe Illustrator 23.0.4, SVG Export Plug-In . SVG Version: 6.00 Build 0)  -->
<svg version="1.1" id="Layer_1" xmlns="http://www.w3.org/2000/svg" xmlns:xlink="http://www.w3.org/1999/xlink" x="0px" y="0px"
	 viewBox="0 0 1425 710" style="enable-background:new 0 0 1425 710;" xml:space="preserve">
<style type="text/css">
	.st0{fill:#F0F0F0;}
	.st1{fill:#93B29F;}
	.st2{fill:#424C46;}
	.st3{fill:#F9BDBD;}
	.st4{fill:#444444;}
	.st5{fill:#DBABAB;}
</style>
<g>
	<g>
		<path class="st0" d="M819.99,355c-0.28,44.87-28.74,86.18-71.27,101.25c-42.46,15.04-90.51,1.66-119.24-32.94
			c-28.71-34.59-32.24-85.25-9.12-123.68c23.06-38.33,68.9-58.82,112.85-50.13C783.28,259.39,819.68,304.14,819.99,355
			c0.04,5.79,9.04,5.8,9,0c-0.3-48.6-30.94-92.67-76.63-109.48c-45.65-16.79-98.83-2.27-129.66,35.31
			c-30.93,37.7-35.33,92.16-10.11,134.09c25.22,41.91,75.09,63.79,123.02,54.27c46.9-9.32,84.61-48.47,91.91-95.77
			c0.94-6.11,1.44-12.24,1.48-18.42C829.02,349.21,820.02,349.2,819.99,355z"/>
	</g>
</g>
<g>
	<g>
		<g>
			<path class="st1" d="M711.08,295.25c1.43,2.83,2.31,5.94,2.58,9.1"/>
			<g>
				<path class="st1" d="M710.43,295.63c1.35,2.76,2.18,5.66,2.48,8.72c0.09,0.95,1.59,0.96,1.5,0c-0.33-3.32-1.22-6.47-2.68-9.47
					C711.3,294,710.01,294.76,710.43,295.63L710.43,295.63z"/>
			</g>
		</g>
		<g>
			<path class="st1" d="M711.41,294.64c0.89-2.07,3.06-3.98,5.25-4.51c0.7-0.17,1.7-0.04,1.78,0.68c0.03,0.25-0.03,0.53-0.19,0.72
				c-1.97,2.26-1.93,1.78-2.93,2.54C714.33,294.82,712.61,294.98,711.41,294.64"/>
			<g>
				<path class="st1" d="M712.05,295.01c0.67-1.43,1.72-2.64,3.09-3.45c0.45-0.27,1.39-0.88,1.94-0.74
					c0.85,0.22-0.22,1.13-0.56,1.45c-1.31,1.25-3.09,2.06-4.91,1.64c-0.94-0.22-1.34,1.22-0.4,1.45c1.88,0.44,3.42,0.02,5-1
					c1.07-0.69,2.67-1.77,2.94-3.08c0.44-2.1-2.16-2.13-3.46-1.64c-2.15,0.81-3.96,2.54-4.93,4.62
					C710.35,295.13,711.65,295.89,712.05,295.01L712.05,295.01z"/>
			</g>
		</g>
		<g>
			<path class="st1" d="M711.08,295.25c0.25-1.52-0.63-3.62-1.71-4.73s-2.5-1.83-3.96-2.35c-0.29-0.11-0.6-0.21-0.91-0.14
				c-0.87,0.19-0.9,1.44-0.59,2.27C704.87,292.92,711.08,295.25,711.08,295.25z"/>
			<g>
				<path class="st1" d="M711.83,295.25c0.28-2.64-1.35-5.17-3.51-6.54c-1.67-1.06-5.42-2.67-5.32,0.73c0.1,3.5,5.14,5.5,7.88,6.54
					c0.9,0.34,1.29-1.11,0.4-1.45c-1.99-0.76-4.16-1.77-5.72-3.24c-0.42-0.4-0.94-0.92-1.02-1.52c-0.22-1.74,2.38-0.18,3.02,0.24
					c1.75,1.13,3,3.11,2.77,5.25C710.23,296.21,711.73,296.2,711.83,295.25z"/>
			</g>
		</g>
	</g>
	<g>
		<g>
			<path class="st2" d="M707.29,291.73c1.06,1.11,2.26,2.04,3.61,2.77c0.17,0.09,0.32-0.17,0.15-0.26
				c-1.33-0.72-2.51-1.63-3.55-2.73C707.37,291.38,707.16,291.59,707.29,291.73L707.29,291.73z"/>
		</g>
	</g>
	<g>
		<g>
			<path class="st2" d="M711.17,294.48c1.41-0.62,2.68-1.44,3.83-2.46c0.14-0.13-0.07-0.34-0.21-0.21c-1.13,1-2.39,1.8-3.77,2.41
				C710.84,294.3,710.99,294.56,711.17,294.48L711.17,294.48z"/>
		</g>
	</g>
</g>
<circle class="st3" cx="714.5" cy="360.89" r="59.5"/>
<ellipse transform="matrix(0.0576 -0.9983 0.9983 0.0576 309.0363 1021.9521)" class="st4" cx="695.85" cy="347.28" rx="4.41" ry="1.69"/>
<ellipse transform="matrix(0.0576 -0.9983 0.9983 0.0576 336.1186 1050.6432)" class="st4" cx="724.59" cy="347.28" rx="4.41" ry="1.69"/>
<g>
	<g>
		<path class="st4" d="M708.17,353.87c1.06,1.92,4.86,1.76,5.85-0.15c0.22-0.43-0.43-0.81-0.65-0.38c-0.73,1.41-3.76,1.58-4.55,0.15
			C708.58,353.07,707.93,353.45,708.17,353.87L708.17,353.87z"/>
	</g>
</g>
<g>
	<g>
		<path class="st5" d="M667.02,370.99c13.78,0.19,27.55-0.17,41.31-1.09c-0.13-0.98-0.27-1.96-0.4-2.95
			c-8.61,1.9-17.15,4.1-25.61,6.59c-1.67,0.49-1.26,2.83,0.4,2.95c3.64,0.26,7.27,0.51,10.91,0.77c2.76,0.19,10.32-0.41,12.06,1.98
			c0.3-0.73,0.6-1.47,0.9-2.2c-5.02,0.71-9.82,1.98-14.54,3.84c-1.18,0.47-1.52,2.01-0.36,2.74c1.2,0.76,1.58,0.86,2.97,1.23
			c0.76,0.2,6.11-0.13,5.05,2.15c-0.8,1.74,1.78,3.27,2.59,1.51c3.05-6.61-5.97-5.5-9.1-7.48c-0.12,0.91-0.24,1.83-0.36,2.74
			c4.72-1.86,9.52-3.13,14.54-3.84c0.91-0.13,1.42-1.48,0.9-2.2c-1.96-2.7-4.54-2.73-7.71-2.97c-5.95-0.45-11.9-0.84-17.85-1.26
			c0.13,0.98,0.27,1.96,0.4,2.95c8.46-2.49,16.99-4.69,25.61-6.59c1.63-0.36,1.3-3.06-0.4-2.95c-13.75,0.92-27.53,1.29-41.31,1.09
			C665.09,367.96,665.09,370.96,667.02,370.99L667.02,370.99z"/>
	</g>
</g>
<g>
	<g>
		<path class="st5" d="M720.01,314.74c1.5-0.01,3.68-0.31,5.14-0.02c1.36-0.56,2.02-0.21,1.98,1.04c0.65,1.17,0.16,1.91-1.46,2.21
			c-2.51,1.28-5.46,1.56-8.03,2.8c-1.45,0.7-0.6,2.7,0.76,2.8c4.29,0.3,8.38,1.09,12.48,2.35c-0.3-0.73-0.6-1.47-0.9-2.2
			c-1.15,2.07-2.45,3.45-4.51,4.69c-0.66,0.4-0.99,1.37-0.54,2.05c1.61,2.41,4.2,1.79,6.9,1.82c5.22,0.05,10.44,0.1,15.66,0.15
			c1.93,0.02,1.93-2.98,0-3c-3.26-0.03-6.52-0.06-9.79-0.09c-1.65-0.02-9.33,0.88-10.18-0.39c-0.18,0.68-0.36,1.37-0.54,2.05
			c2.49-1.49,4.18-3.22,5.59-5.76c0.48-0.86,0.04-1.91-0.9-2.2c-4.36-1.34-8.73-2.14-13.28-2.46c0.25,0.93,0.5,1.86,0.76,2.8
			c3.76-1.81,12.32-2.39,12.37-8.38c0.04-5.31-8.23-3.25-11.51-3.24C718.08,311.74,718.07,314.74,720.01,314.74L720.01,314.74z"/>
	</g>
</g>
<g>
	<g>
		<path class="st5" d="M731.76,403.8c3.84,0.17,7.67-1.22,11.16-2.67c1.82-0.76,5.32-1.76,6.41-3.63c0.27-0.47,0.27-1.05,0-1.51
			c-0.68-1.17-2.49-1.6-3.66-2.05c-1.6-0.62-4.99-2.58-6.67-2.41c-0.16-0.06-0.31-0.12-0.46-0.18c-0.74-0.37-0.72,0.24,0.05,1.83
			c0.13,0.08,1.04-0.48,1.25-0.5c1.32-0.12,2.91-0.93,4.18-1.29c2.94-0.83,5.92-1.58,8.9-2.27c1.88-0.44,1.08-3.33-0.8-2.89
			c-3.74,0.87-7.48,1.79-11.15,2.93c-1.58,0.49-4.51,0.98-5.13,2.81c-0.17,0.49,0.02,1.11,0.39,1.46c1.04,0.98,2.89,1.33,4.19,1.79
			c0.95,0.34,5.66,2.79,6.43,2.46c0.5-0.21-0.04-1.49-0.48-1.53c-0.26-0.02-0.78,0.49-1.03,0.57c-1.45,0.48-2.85,1.38-4.28,1.95
			c-2.93,1.16-6.12,2.27-9.3,2.13C729.83,400.71,729.83,403.71,731.76,403.8L731.76,403.8z"/>
	</g>
</g>
</svg>
